<svg width="640" height="480" xmlns="http://www.w3.org/2000/svg">
 <title>magical fish</title>
 <g>
  <title>Layer 1</title>
  <g id="svg_1">
   <path fill="#aaffaa" d="m68.601425,6.144638c2.858582,-1.136467 1.31871,3.489815 1.684601,5.899437c0.537415,3.538055 1.819962,9.134621 1.685928,15.170753c-0.105881,4.787102 -2.301086,10.280472 0,15.170761c1.91243,-0.896576 0.321625,-5.297699 0.842972,-7.585373c3.052902,3.408058 1.160583,11.762688 1.685928,17.699661c2.606644,-0.20237 -1.317398,-6.936737 2.5289,-5.899452c1.771713,3.284767 0.42215,9.692139 0.842957,14.327797c-2.260849,-1.111015 -1.399124,-5.343269 -2.5289,-7.585381c-1.633652,2.839828 -2.704468,9.355751 0,11.800224c-4.42926,2.163033 -1.815918,-14.435005 -2.528885,-21.071541c-3.446945,9.69883 -0.251968,18.69944 0,30.342857c-2.662933,2.555695 -3.310226,1.88562 -7.585388,2.5289c0.23587,-1.921814 -0.20369,-3.168167 -1.685928,-3.371887c1.356247,-23.387344 2.691055,-43.96167 5.057816,-67.426758zm-1.685959,68.268402c0.845673,-0.002686 1.002457,0.682144 1.685959,0.842972c-0.080429,-1.324097 0.112564,-2.922928 -1.685959,-2.528915c0,0.561539 0,1.124405 0,1.685944z" clip-rule="evenodd" fill-rule="evenodd"/>
   <path fill="#aaffaa" d="m79.557343,51.656898c1.801178,3.818161 2.841156,8.397522 8.428345,8.428352c-0.840302,1.125748 -2.278305,1.655113 -2.528915,3.371872c-3.342392,-1.951286 -2.413666,0.998428 -5.899429,0.842964c0.201019,-4.166588 -2.258194,-9.109146 0,-12.643188z" clip-rule="evenodd" fill-rule="evenodd"/>
   <path fill="#aaffaa" d="m60.173065,63.45578c5.698425,3.260651 -1.652435,6.176865 -0.842957,11.800232c-5.528214,3.743088 -6.897873,11.643417 -12.643204,15.170761c0.423508,-13.062683 8.664215,-18.308121 13.48616,-26.970993z" clip-rule="evenodd" fill-rule="evenodd"/>
   <path fill="#aaffaa" d="m86.301071,65.141724c2.220673,-0.253296 2.766129,1.167297 2.528915,3.371872c-1.123062,0 -2.247482,0 -3.371887,0c-0.356476,-1.762329 0.577606,-2.232727 0.842972,-3.371872z" clip-rule="evenodd" fill-rule="evenodd"/>
   <path fill="#aaffaa" d="m93.886444,70.199539c0.842972,0 1.685928,0 2.528915,0c7.620239,9.517899 14.484589,19.790329 17.699661,33.713379c-4.884933,-5.206573 -6.381912,-12.007935 -10.114273,-17.699661c-3.363846,-5.128845 -9.39328,-8.996582 -10.114304,-16.013718z" clip-rule="evenodd" fill-rule="evenodd"/>
   <path fill="#aaffaa" d="m135.185226,71.884125c-3.378571,9.826157 -7.10025,19.309219 -10.114288,29.498535c2.125519,-2.087967 3.400009,-5.028305 5.056473,-7.585373c4.933167,5.903458 -5.278915,10.157181 -5.89946,16.013733c3.5327,0.160812 2.605301,-4.137131 6.742416,-3.371872c1.779755,4.037949 -3.278061,7.746201 -5.899429,10.11293c1.877594,1.915131 5.181107,-2.827789 7.585342,-0.842957c-0.670074,4.387726 -5.394165,4.718735 -9.271271,5.899445c0.24791,-1.956665 2.117462,-3.949493 -1.685944,-3.371887c0.39534,-5.68634 0.39534,-9.814072 2.528885,-15.170746c-2.087982,2.688385 -3.086411,6.466339 -5.056458,9.269974c-4.129059,-0.952866 -2.417679,-7.740845 0,-9.269974c0.61113,-13.998108 9.736359,-19.483444 12.643173,-31.184479c1.121735,0.00267 2.24614,0.00267 3.37056,0.00267z" clip-rule="evenodd" fill-rule="evenodd"/>
   <path fill="#aaffaa" d="m92.200516,76.098969c5.756042,2.672318 8.37207,8.484634 10.955917,14.327805c-6.17955,-2.247482 -8.729874,-8.126816 -10.955917,-14.327805z" clip-rule="evenodd" fill-rule="evenodd"/>
   <path fill="#aaffaa" d="m71.971954,79.469498c-0.093826,2.153671 -2.821075,1.673889 -5.056488,1.685944c0.40741,-2.922913 3.200333,-2.15097 5.056488,-1.685944z" clip-rule="evenodd" fill-rule="evenodd"/>
   <path fill="#aaffaa" d="m55.959579,81.155441c3.611755,-0.132675 -0.883179,3.441574 -0.842972,5.056473c0.733078,2.488693 1.261093,-1.955307 3.371857,-0.842972c-2.481995,5.66626 -5.689026,10.606125 -10.957245,13.484833c2.027695,-6.759842 4.092896,-11.780121 8.42836,-17.698334z" clip-rule="evenodd" fill-rule="evenodd"/>
   <path fill="#aaffaa" d="m71.971954,81.998413c-0.332367,2.758087 -4.130417,2.050461 -6.742416,2.5289c-0.046906,-3.137329 3.749802,-2.431061 6.742416,-2.5289z" clip-rule="evenodd" fill-rule="evenodd"/>
   <path fill="#aaffaa" d="m90.514587,82.841385c4.945236,2.921585 7.830612,7.901657 10.114273,13.484818c-5.920883,-1.49295 -9.678726,-9.276672 -10.114273,-13.484818z" clip-rule="evenodd" fill-rule="evenodd"/>
   <path fill="#aaffaa" d="m71.971954,87.054886c0.462357,2.037064 -6.589645,3.05426 -5.899445,0c1.919128,-0.408752 4.305984,-1.671204 5.899445,0z" clip-rule="evenodd" fill-rule="evenodd"/>
   <path fill="#aaffaa" d="m98.09996,99.69809c-5.186462,-0.995773 -7.302597,-5.057816 -9.271301,-9.271317c3.727005,-0.688858 7.286514,5.470581 9.271301,9.271317z" clip-rule="evenodd" fill-rule="evenodd"/>
   <path fill="#aaffaa" d="m72.814926,91.26973c0.373886,2.129532 -7.311981,3.040848 -6.742416,0c1.979431,-1.991501 4.141129,0.136688 6.742416,0z" clip-rule="evenodd" fill-rule="evenodd"/>
   <path fill="#aaffaa" d="m54.273621,94.640274c4.141144,1.521088 -2.323853,5.762741 -3.371857,7.585358c-2.96312,-3.292801 3.737732,-4.091537 3.371857,-7.585358z" clip-rule="evenodd" fill-rule="evenodd"/>
   <path fill="#aaffaa" d="m71.128983,94.640274c0.550812,3.359818 -3.204361,2.413635 -5.899445,2.5289c0.639267,-2.171082 2.691055,-2.928284 5.899445,-2.5289z" clip-rule="evenodd" fill-rule="evenodd"/>
   <path fill="#aaffaa" d="m87.144043,96.326202c4.090195,-2.098709 6.247894,4.970703 7.585373,8.428345c-4.658417,-0.679474 -4.166595,-6.510559 -7.585373,-8.428345z" clip-rule="evenodd" fill-rule="evenodd"/>
   <path fill="#aaffaa" d="m70.287354,98.855118c1.72345,4.407837 -6.698181,4.725449 -5.899429,0.842972c1.085541,-1.161942 3.659988,-0.834961 5.899429,-0.842972z" clip-rule="evenodd" fill-rule="evenodd"/>
   <path fill="#aaffaa" d="m84.615128,100.541046c3.287445,-1.017197 6.805405,4.977386 6.742416,10.11293c-2.563736,-0.808121 -1.707382,-5.035004 -5.899445,-4.213501c-0.501221,-1.746231 1.041321,-5.53624 -0.842972,-5.899429z" clip-rule="evenodd" fill-rule="evenodd"/>
   <path fill="#aaffaa" d="m55.959579,101.384018c-0.501236,3.152069 -1.318741,5.986542 -5.056488,5.899445c0.499878,-3.152115 1.317383,-5.986557 5.056488,-5.899445z" clip-rule="evenodd" fill-rule="evenodd"/>
   <path fill="#aaffaa" d="m36.573959,103.911591c0.842987,0 1.685959,0 2.528915,0c-1.734192,8.540909 -7.328064,19.051895 -7.585388,28.655579c-0.152771,5.705093 3.575592,10.544464 1.685944,16.013702c-3.417435,-2.235397 -4.021851,-7.913712 -4.213501,-11.800232c-0.526672,-10.628906 4.645035,-24.001144 7.58403,-32.869049z" clip-rule="evenodd" fill-rule="evenodd"/>
   <path fill="#aaffaa" d="m63.544937,103.911591c1.40451,0 2.809006,0 4.214844,0c0.637924,2.54631 -5.512131,4.192062 -4.214844,0z" clip-rule="evenodd" fill-rule="evenodd"/>
   <path fill="#aaffaa" d="m40.78746,107.283463c1.285248,11.164978 -8.448425,20.409485 -4.214828,36.240952c-2.459229,-0.675446 -2.327881,-3.637238 -2.5289,-5.056473c-1.545242,-10.946533 3.137329,-22.189255 6.743729,-31.184479z" clip-rule="evenodd" fill-rule="evenodd"/>
   <path fill="#aaffaa" d="m85.458099,110.653976c0.136703,-0.987701 1.535858,-0.710281 2.528915,-0.841614c0.707611,0.978317 1.11235,2.259537 0.842972,4.213501c-1.979446,-0.269379 -1.886978,-2.609329 -3.371887,-3.371887z" clip-rule="evenodd" fill-rule="evenodd"/>
   <path fill="#aaffaa" d="m66.07251,114.025864c1.685928,0 3.370529,0 5.056473,0c0.930084,3.511261 -5.985214,3.511261 -5.056473,0z" clip-rule="evenodd" fill-rule="evenodd"/>
   <path fill="#aaffaa" d="m41.630447,115.710464c4.358231,4.574005 -2.347977,11.341873 -2.528915,16.856705c-3.796707,-4.011154 2.012939,-11.675598 2.528915,-16.856705z" clip-rule="evenodd" fill-rule="evenodd"/>
   <path fill="#aaffaa" d="m85.458099,115.710464c1.83873,-0.152756 2.681686,0.690186 2.528915,2.5289c-0.842972,0 -1.685944,0 -2.528915,0c0,-0.842972 0,-1.685928 0,-2.5289z" clip-rule="evenodd" fill-rule="evenodd"/>
   <path fill="#aaffaa" d="m71.128983,120.768295c-2.646835,-2.846527 -5.844498,1.94191 -7.585373,0c0.96492,-2.17244 8.173706,-6.089767 7.585373,0z" clip-rule="evenodd" fill-rule="evenodd"/>
   <path fill="#aaffaa" d="m116.642593,119.082336c4.894302,3.016724 8.945663,18.397873 1.685928,21.071518c0.408752,-7.995453 -1.302643,-13.869431 -1.685928,-21.071518z" clip-rule="evenodd" fill-rule="evenodd"/>
   <path fill="#aaffaa" d="m126.756882,121.611252c1.404495,0 2.810333,0 4.214844,0c0.637924,2.54631 -5.512146,4.192017 -4.214844,0z" clip-rule="evenodd" fill-rule="evenodd"/>
   <path fill="#aaffaa" d="m84.615128,128.353638c-6.854965,0.111252 -11.114044,-2.370758 -16.856689,-3.371857c-2.634766,0.61647 -6.070984,3.428162 -8.428329,1.685928c3.044861,-4.407822 16.297836,-6.306839 19.384262,-0.842957c2.620026,-1.263779 5.876633,-0.985031 5.900757,2.528885l0,0z" clip-rule="evenodd" fill-rule="evenodd"/>
   <path fill="#aaffaa" d="m44.159348,124.981781c3.607742,-0.001358 0.645966,5.632751 0,6.742401c-3.68013,-0.069672 0.420822,-4.564621 0,-6.742401z" clip-rule="evenodd" fill-rule="evenodd"/>
   <path fill="#aaffaa" d="m125.070938,127.510681c2.826447,-0.017426 5.618011,0 5.056488,3.371887c-2.826447,0.01741 -5.618027,0 -5.056488,-3.371887z" clip-rule="evenodd" fill-rule="evenodd"/>
   <path fill="#aaffaa" d="m117.485565,130.882568c-0.373901,10.106232 -0.172882,17.734482 -5.056488,24.442047c-3.007339,-0.714294 -0.100494,-2.075912 -0.842972,-5.056458c-1.368301,1.442032 -2.551682,3.067657 -2.5289,5.899445c-2.377457,-3.347748 0.838943,-14.597183 1.685944,-20.227234c1.899002,3.672073 1.659134,8.187119 0.842957,12.643188c5.702438,-3.980316 -0.357819,-15.243118 5.89946,-17.700989z" clip-rule="evenodd" fill-rule="evenodd"/>
   <path fill="#aaffaa" d="m71.128983,134.253098c-0.968948,1.651077 -5.912842,4.579361 -5.899445,0c2.388184,-0.877808 3.512589,-0.877808 5.899445,0z" clip-rule="evenodd" fill-rule="evenodd"/>
   <path fill="#aaffaa" d="m132.656281,138.467941c-2.361374,-0.447617 -4.382339,-1.236984 -6.742386,-1.685928c0,-0.842972 0,-1.685959 0,-2.528915c1.706055,-0.881836 7.412476,0.062988 6.742386,4.214844z" clip-rule="evenodd" fill-rule="evenodd"/>
   <path fill="#aaffaa" d="m75.343811,137.624954c1.361633,-0.237213 1.451431,0.796051 2.5289,0.842972c-1.054688,8.077194 2.672333,11.375366 5.056488,16.013733c-5.924896,-1.929855 -8.610596,-10.683868 -7.585388,-16.856705z" clip-rule="evenodd" fill-rule="evenodd"/>
   <path fill="#aaffaa" d="m125.070938,138.467941c5.000198,0.517303 9.44957,5.474625 9.271317,8.428345c-3.940109,-1.960709 -9.027405,-2.772827 -9.271317,-8.428345z" clip-rule="evenodd" fill-rule="evenodd"/>
   <path fill="#aaffaa" d="m54.273621,147.739273c0.779984,-3.995071 1.502335,-8.050415 6.742416,-7.585373c-1.719452,3.0569 -0.727707,8.823669 -6.742416,7.585373z" clip-rule="evenodd" fill-rule="evenodd"/>
   <path fill="#aaffaa" d="m80.400299,140.15387c2.558395,1.655121 5.052444,3.377243 4.214828,8.42836c-2.030334,0.344421 -1.832016,-1.539871 -4.214828,-0.842957c-0.239914,-3.924057 -2.59726,-4.690598 0,-7.585403z" clip-rule="evenodd" fill-rule="evenodd"/>
   <path fill="#aaffaa" d="m84.615128,140.15387c3.822189,0.623184 8.766098,7.373642 5.056488,10.112961c-3.02478,-2.03038 -3.011383,-7.102951 -5.056488,-10.112961z" clip-rule="evenodd" fill-rule="evenodd"/>
   <path fill="#aaffaa" d="m123.38501,141.839813c4.773697,4.496262 10.88353,7.657745 15.170746,12.641846c-0.261322,1.144501 -2.110764,0.69957 -3.371887,0.842957c3.099823,6.170166 8.949692,9.592972 10.957245,16.856705c-4.815231,0.310928 -6.278702,-4.434616 -9.271301,-7.585388c-5.425034,-5.709122 -11.420959,-12.576157 -16.013733,-20.227203c0.863083,-0.824219 1.706055,-1.667191 2.528931,-2.528915z" clip-rule="evenodd" fill-rule="evenodd"/>
   <path fill="#aaffaa" d="m105.685303,144.367371c3.296844,0.450302 1.972763,9.457611 -0.842941,9.269989c1.009155,-2.361389 0.927399,-5.815018 0.842941,-9.269989z" clip-rule="evenodd" fill-rule="evenodd"/>
   <path fill="#aaffaa" d="m98.09996,150.26683c5.016266,2.343994 2.081299,14.492615 0,17.699661c1.155228,3.669403 -0.010712,5.654175 -0.842957,9.271317c-4.141129,-3.421463 -4.925125,0.989044 -9.271317,1.685928c5.439743,-7.483521 10.425186,-15.421371 10.114273,-28.656906z" clip-rule="evenodd" fill-rule="evenodd"/>
   <path fill="#aaffaa" d="m87.987015,151.109787c-0.124634,1.842743 -2.122833,1.810577 -4.214844,1.685959c-0.864395,-2.831818 2.621368,-1.312057 4.214844,-1.685959z" clip-rule="evenodd" fill-rule="evenodd"/>
   <path fill="#aaffaa" d="m32.359131,152.795715c4.119675,0.729065 5.693054,6.333664 4.214828,10.114288c-3.558151,-1.218216 -3.538055,-6.014679 -4.214828,-10.114288z" clip-rule="evenodd" fill-rule="evenodd"/>
   <path fill="#aaffaa" d="m69.444382,155.324615c-0.525345,2.565094 -1.870895,4.308655 -5.056458,4.214828c-3.000671,-4.543167 1.915085,-7.448654 5.056458,-4.214828z" clip-rule="evenodd" fill-rule="evenodd"/>
   <path fill="#aaffaa" d="m71.971954,153.638687c2.565094,0.525345 4.308655,1.872223 4.214828,5.056473c-3.516602,0.486481 -6.160751,-2.688385 -4.214828,-5.056473z" clip-rule="evenodd" fill-rule="evenodd"/>
   <path fill="#aaffaa" d="m43.316376,165.437576c1.40451,0 2.810349,0 4.214844,0c0,1.123062 0,2.247467 0,3.371872c-2.881378,0.352478 -4.803177,-0.254623 -4.214844,-3.371872z" clip-rule="evenodd" fill-rule="evenodd"/>
   <path fill="#aaffaa" d="m110.743149,165.437576c9.505844,0.609772 14.502029,5.72522 18.542618,11.800232c-7.755585,-2.360046 -15.950714,-4.277832 -18.542618,-11.800232z" clip-rule="evenodd" fill-rule="evenodd"/>
   <path fill="#aaffaa" d="m129.284439,199.15097c-4.389069,0.332367 -8.305054,-4.488235 -11.800232,-7.585373c-3.664017,-3.248596 -7.39238,-6.734375 -10.114273,-10.114288c-2.030365,0.345779 -1.832031,-1.538513 -4.214874,-0.841629c0.139404,-2.666946 -2.23941,-2.817047 -1.685913,-5.899445c2.713852,0.184937 3.566193,-1.490265 6.742401,-0.842972c7.5224,7.931152 16.911636,13.994064 21.072891,25.283707z" clip-rule="evenodd" fill-rule="evenodd"/>
   <path fill="#aaffaa" d="m94.729416,180.609665c-0.214417,2.876007 -1.803864,4.377014 -5.056473,4.213501c0.814835,-2.274261 2.113464,-4.067413 5.056473,-4.213501z" clip-rule="evenodd" fill-rule="evenodd"/>
   <path fill="#aaffaa" d="m88.828659,182.294266c0,1.12442 0,2.247467 0,3.371872c-2.413666,0.166183 -4.599487,0.105881 -4.214859,-2.5289c0.979675,-0.706268 2.260864,-1.111008 4.214859,-0.842972z" clip-rule="evenodd" fill-rule="evenodd"/>
   <path fill="#aaffaa" d="m50.901764,184.823166c2.413635,-0.166168 4.599457,-0.104538 4.214844,2.528915c-2.413666,0.166168 -4.60083,0.104538 -4.214844,-2.528915z" clip-rule="evenodd" fill-rule="evenodd"/>
   <path fill="#aaffaa" d="m85.458099,135.096054c-2.397568,3.366516 -7.724747,-3.001968 -10.957245,-4.214828c-13.069366,-1.117722 -17.332458,3.349091 -23.599091,7.585373c0.690186,-1.312012 1.936539,-2.463242 2.528885,-3.371887c7.002411,-10.732101 23.261398,-7.959274 32.027451,0.001343z" clip-rule="evenodd" fill-rule="evenodd"/>
   <path fill="#aaffaa" d="m64.387924,138.467941c0.008041,6.751801 -3.278091,10.206741 -5.056488,15.170746c-3.946793,-4.047302 -2.417679,3.231171 -7.585388,2.528915c0.229187,-2.861252 -0.652664,-6.833542 0.842972,-8.428329c1.856155,0.671417 3.365189,1.691299 3.371887,4.213486c4.212158,-3.090439 3.811462,-10.79509 8.427017,-13.484818z" clip-rule="evenodd" fill-rule="evenodd"/>
   <path fill="#aaffaa" d="m41.630447,173.867249c-2.350677,1.862839 -2.991287,5.435745 -4.214859,8.428345c-6.558792,4.398453 -9.363785,12.549377 -16.856689,16.013702c-1.573357,2.64151 -4.102264,7.87085 -7.585373,5.899475c-2.180458,-2.167084 0.704933,-3.572906 2.528908,-4.214874c2.715187,-12.736984 13.311928,-17.59108 18.541298,-27.812576c3.322281,-1.647079 2.577133,1.647049 5.899429,0c-2.829117,-7.157867 -2.528915,-17.612579 -0.842957,-26.128021c4.096893,3.429489 0.608429,8.422974 0.842957,12.641861c0.483795,8.668228 4.796478,15.970825 8.428345,21.91449c4.734848,-1.447372 7.597427,-4.764313 8.42836,-10.114288c9.303482,-7.747528 25.786255,-4.502975 31.184464,5.056488c-10.147766,-0.202362 -25.700485,-2.398926 -31.184464,5.899429c6.434158,-1.088211 19.862701,-6.213043 25.285019,2.5289c-8.035675,0.317627 -16.624847,-3.256607 -24.442062,1.685959c0.356491,-1.761002 -0.577606,-2.2314 -0.842957,-3.371887c-7.979401,3.090454 -14.166977,-1.838715 -15.169418,-8.427002z" clip-rule="evenodd" fill-rule="evenodd"/>
  </g>
  <g id="svg_60">
   <path fill="#ffaaff" id="svg_61" d="m70.28302,37.098999c2.132996,-0.848 0.983978,2.604004 1.256989,4.402c0.401001,2.639999 1.358002,6.816002 1.257996,11.32c-0.07901,3.571999 -1.71701,7.671005 0,11.319992c1.427002,-0.668991 0.23999,-3.952988 0.628998,-5.659988c2.278015,2.542999 0.865997,8.776993 1.257996,13.207001c1.945007,-0.151001 -0.983002,-5.17601 1.886993,-4.402008c1.321991,2.451004 0.315002,7.23201 0.628998,10.69101c-1.686981,-0.82901 -1.044006,-3.987 -1.886993,-5.660004c-1.218994,2.119003 -2.018005,6.981003 0,8.805008c-3.304993,1.613983 -1.355011,-10.771011 -1.886993,-15.723007c-2.572021,7.237 -0.187988,13.953003 0,22.641006c-1.987,1.906982 -2.470001,1.406982 -5.660004,1.886993c0.175995,-1.434006 -0.152008,-2.363998 -1.257996,-2.516006c1.011993,-17.451004 2.007996,-32.802994 3.774017,-50.311996zm-1.258026,50.940002c0.631012,-0.001999 0.748016,0.509003 1.258026,0.628998c-0.060028,-0.988007 0.083984,-2.181 -1.258026,-1.886993c0,0.418991 0,0.838989 0,1.257996z" clip-rule="evenodd" fill-rule="evenodd"/>
   <path fill="#ffaaff" id="svg_62" d="m78.458008,71.05899c1.343994,2.849014 2.119995,6.266006 6.289001,6.289001c-0.627014,0.840012 -1.700012,1.235016 -1.887024,2.516006c-2.493988,-1.455994 -1.800995,0.74501 -4.401978,0.628998c0.149994,-3.108994 -1.684998,-6.796997 0,-9.434006z" clip-rule="evenodd" fill-rule="evenodd"/>
   <path fill="#ffaaff" id="svg_63" d="m63.994019,79.863007c4.251984,2.432999 -1.233032,4.608994 -0.629028,8.804993c-4.125,2.792999 -5.146973,8.688004 -9.43399,11.320007c0.31601,-9.747009 6.464996,-13.661011 10.063019,-20.125z" clip-rule="evenodd" fill-rule="evenodd"/>
   <path fill="#ffaaff" id="svg_64" d="m83.48999,81.121002c1.657013,-0.188995 2.064026,0.871002 1.887024,2.515991c-0.838013,0 -1.677002,0 -2.516022,0c-0.265991,-1.315002 0.431,-1.665985 0.628998,-2.515991z" clip-rule="evenodd" fill-rule="evenodd"/>
   <path fill="#ffaaff" id="svg_65" d="m89.149994,84.895004c0.628998,0 1.257996,0 1.886993,0c5.686035,7.102005 10.808014,14.766998 13.207031,25.155991c-3.64502,-3.884995 -4.762024,-8.959991 -7.546997,-13.207001c-2.51001,-3.826996 -7.009033,-6.712997 -7.547028,-11.94899z" clip-rule="evenodd" fill-rule="evenodd"/>
   <path fill="#ffaaff" id="svg_66" d="m119.966003,86.152008c-2.520996,7.332001 -5.298004,14.40799 -7.546997,22.010986c1.585999,-1.557983 2.536987,-3.751984 3.77301,-5.660004c3.680969,4.404999 -3.938995,7.57901 -4.402039,11.949005c2.636017,0.119995 1.944031,-3.087006 5.031006,-2.515991c1.328003,3.013 -2.445984,5.779999 -4.401978,7.54599c1.401001,1.429016 3.865997,-2.110016 5.659973,-0.628998c-0.5,3.274002 -4.024963,3.520996 -6.917969,4.402008c0.184998,-1.460007 1.579987,-2.947006 -1.257996,-2.516006c0.294983,-4.242996 0.294983,-7.322998 1.886963,-11.319992c-1.557983,2.005997 -2.302979,4.824997 -3.77298,6.916992c-3.080994,-0.710999 -1.803986,-5.776001 0,-6.916992c0.456024,-10.445007 7.264984,-14.53801 9.43399,-23.269012c0.837006,0.002014 1.676025,0.002014 2.515015,0.002014z" clip-rule="evenodd" fill-rule="evenodd"/>
   <path fill="#ffaaff" id="svg_67" d="m87.891998,89.296997c4.295013,1.994003 6.247009,6.330994 8.175018,10.69101c-4.611023,-1.677002 -6.514008,-6.063995 -8.175018,-10.69101z" clip-rule="evenodd" fill-rule="evenodd"/>
   <path fill="#ffaaff" id="svg_68" d="m72.798004,91.811996c-0.070007,1.60701 -2.105011,1.249008 -3.77301,1.258011c0.303986,-2.181 2.388,-1.605011 3.77301,-1.258011z" clip-rule="evenodd" fill-rule="evenodd"/>
   <path fill="#ffaaff" id="svg_69" d="m60.850006,93.070007c2.694977,-0.098999 -0.658997,2.567993 -0.628998,3.772995c0.546997,1.856995 0.940979,-1.459 2.515991,-0.629013c-1.85199,4.228012 -4.244995,7.914001 -8.175995,10.062012c1.513,-5.044006 3.053986,-8.790009 6.289001,-13.205994z" clip-rule="evenodd" fill-rule="evenodd"/>
   <path fill="#ffaaff" id="svg_70" d="m72.798004,93.699005c-0.248016,2.057999 -3.082001,1.529999 -5.031006,1.886993c-0.035004,-2.341003 2.798004,-1.813995 5.031006,-1.886993z" clip-rule="evenodd" fill-rule="evenodd"/>
   <path fill="#ffaaff" id="svg_71" d="m86.634003,94.328003c3.690002,2.179993 5.842987,5.895996 7.546997,10.061996c-4.417999,-1.113998 -7.222015,-6.921997 -7.546997,-10.061996z" clip-rule="evenodd" fill-rule="evenodd"/>
   <path fill="#ffaaff" id="svg_72" d="m72.798004,97.472c0.345001,1.520004 -4.917023,2.279007 -4.402008,0c1.432007,-0.305008 3.213013,-1.246994 4.402008,0z" clip-rule="evenodd" fill-rule="evenodd"/>
   <path fill="#ffaaff" id="svg_73" d="m92.294006,106.906006c-3.869995,-0.743011 -5.449005,-3.774002 -6.917999,-6.917999c2.780975,-0.514008 5.436981,4.082001 6.917999,6.917999z" clip-rule="evenodd" fill-rule="evenodd"/>
   <path fill="#ffaaff" id="svg_74" d="m73.427002,100.617004c0.278992,1.588989 -5.455994,2.268997 -5.031006,0c1.47699,-1.486008 3.089996,0.10199 5.031006,0z" clip-rule="evenodd" fill-rule="evenodd"/>
   <path fill="#ffaaff" id="svg_75" d="m59.59198,103.132004c3.090027,1.134995 -1.733978,4.300003 -2.515991,5.659988c-2.210999,-2.457001 2.789001,-3.052994 2.515991,-5.659988z" clip-rule="evenodd" fill-rule="evenodd"/>
   <path fill="#ffaaff" id="svg_76" d="m72.169006,103.132004c0.411011,2.507004 -2.390991,1.800995 -4.402008,1.886993c0.47702,-1.619995 2.007996,-2.184998 4.402008,-1.886993z" clip-rule="evenodd" fill-rule="evenodd"/>
   <path fill="#ffaaff" id="svg_77" d="m84.119019,104.389999c3.051971,-1.565994 4.661987,3.709 5.659973,6.289001c-3.475983,-0.507004 -3.109009,-4.858002 -5.659973,-6.289001z" clip-rule="evenodd" fill-rule="evenodd"/>
   <path fill="#ffaaff" id="svg_78" d="m71.541016,106.277008c1.28598,3.289001 -4.998016,3.526001 -4.402008,0.628998c0.809998,-0.867004 2.730988,-0.623016 4.402008,-0.628998z" clip-rule="evenodd" fill-rule="evenodd"/>
   <path fill="#ffaaff" id="svg_79" d="m82.231995,107.535004c2.453003,-0.759003 5.078003,3.713989 5.031006,7.54599c-1.912994,-0.602997 -1.273987,-3.756989 -4.402008,-3.143997c-0.373993,-1.302994 0.777008,-4.130997 -0.628998,-4.401993z" clip-rule="evenodd" fill-rule="evenodd"/>
   <path fill="#ffaaff" id="svg_80" d="m60.850006,108.164001c-0.373993,2.35199 -0.984009,4.466995 -3.77301,4.402008c0.373016,-2.35202 0.983002,-4.46701 3.77301,-4.402008z" clip-rule="evenodd" fill-rule="evenodd"/>
   <path fill="#ffaaff" id="svg_81" d="m46.38501,110.050003c0.628998,0 1.257996,0 1.886993,0c-1.294006,6.373001 -5.467987,14.216003 -5.660004,21.382004c-0.114014,4.256989 2.667999,7.867996 1.257996,11.94899c-2.549988,-1.667999 -3.000977,-5.904999 -3.143982,-8.805008c-0.393005,-7.931 3.466003,-17.908997 5.658997,-24.525986z" clip-rule="evenodd" fill-rule="evenodd"/>
   <path fill="#ffaaff" id="svg_82" d="m66.51001,110.050003c1.047974,0 2.096008,0 3.144989,0c0.475983,1.899994 -4.113007,3.128006 -3.144989,0z" clip-rule="evenodd" fill-rule="evenodd"/>
   <path fill="#ffaaff" id="svg_83" d="m49.528992,112.56601c0.959015,8.330994 -6.303986,15.228989 -3.144989,27.041992c-1.834991,-0.503998 -1.737,-2.714005 -1.886993,-3.772995c-1.153015,-8.167999 2.341003,-16.557007 5.031982,-23.268997z" clip-rule="evenodd" fill-rule="evenodd"/>
   <path fill="#ffaaff" id="svg_84" d="m82.860992,115.080994c0.10202,-0.737 1.146027,-0.529999 1.886993,-0.627991c0.528015,0.729996 0.830017,1.686005 0.629028,3.143997c-1.47702,-0.201004 -1.40802,-1.947006 -2.516022,-2.516006z" clip-rule="evenodd" fill-rule="evenodd"/>
   <path fill="#ffaaff" id="svg_85" d="m68.395996,117.597c1.257996,0 2.515015,0 3.77301,0c0.694,2.62001 -4.466003,2.62001 -3.77301,0z" clip-rule="evenodd" fill-rule="evenodd"/>
   <path fill="#ffaaff" id="svg_86" d="m50.15802,118.854004c3.251984,3.412994 -1.752014,8.462997 -1.887024,12.578003c-2.833008,-2.993011 1.502014,-8.712006 1.887024,-12.578003z" clip-rule="evenodd" fill-rule="evenodd"/>
   <path fill="#ffaaff" id="svg_87" d="m82.860992,118.854004c1.372009,-0.113983 2.001007,0.514999 1.886993,1.886993c-0.628967,0 -1.257996,0 -1.886993,0c0,-0.628998 0,-1.257996 0,-1.886993z" clip-rule="evenodd" fill-rule="evenodd"/>
   <path fill="#ffaaff" id="svg_88" d="m72.169006,122.628021c-1.975006,-2.124008 -4.361023,1.44899 -5.660004,0c0.720001,-1.621017 6.098999,-4.544022 5.660004,0z" clip-rule="evenodd" fill-rule="evenodd"/>
   <path fill="#ffaaff" id="svg_89" d="m106.130005,121.369995c3.651978,2.251007 6.674988,13.727997 1.257996,15.722992c0.304993,-5.965988 -0.971985,-10.348984 -1.257996,-15.722992z" clip-rule="evenodd" fill-rule="evenodd"/>
   <path fill="#ffaaff" id="svg_90" d="m113.677002,123.257004c1.048004,0 2.096985,0 3.14502,0c0.475983,1.899994 -4.113037,3.127975 -3.14502,0z" clip-rule="evenodd" fill-rule="evenodd"/>
   <path fill="#ffaaff" id="svg_91" d="m82.231995,128.287994c-5.11499,0.083008 -8.292999,-1.768997 -12.578003,-2.515991c-1.966003,0.459991 -4.529999,2.557999 -6.289001,1.257996c2.272003,-3.289001 12.161011,-4.705994 14.46402,-0.628998c1.954987,-0.942993 4.384979,-0.735001 4.402985,1.886993l0,0z" clip-rule="evenodd" fill-rule="evenodd"/>
   <path fill="#ffaaff" id="svg_92" d="m52.044983,125.772003c2.692017,-0.001007 0.482025,4.203003 0,5.030991c-2.745972,-0.051987 0.314026,-3.405991 0,-5.030991z" clip-rule="evenodd" fill-rule="evenodd"/>
   <path fill="#ffaaff" id="svg_93" d="m112.419006,127.658997c2.109009,-0.013 4.192017,0 3.77301,2.516006c-2.109009,0.013 -4.192017,0 -3.77301,-2.516006z" clip-rule="evenodd" fill-rule="evenodd"/>
   <path fill="#ffaaff" id="svg_94" d="m106.759003,130.175003c-0.278992,7.541 -0.128998,13.232986 -3.77301,18.237991c-2.243988,-0.53299 -0.074982,-1.548996 -0.628998,-3.772995c-1.020996,1.076004 -1.903992,2.289001 -1.886993,4.402008c-1.774017,-2.498001 0.626007,-10.892014 1.257996,-15.093002c1.416992,2.73999 1.238007,6.108994 0.628998,9.43399c4.255005,-2.970001 -0.266998,-11.373993 4.402008,-13.207993z" clip-rule="evenodd" fill-rule="evenodd"/>
   <path fill="#ffaaff" id="svg_95" d="m72.169006,132.690002c-0.723022,1.231995 -4.411987,3.416992 -4.402008,0c1.782013,-0.654999 2.621002,-0.654999 4.402008,0z" clip-rule="evenodd" fill-rule="evenodd"/>
   <path fill="#ffaaff" id="svg_96" d="m118.078979,135.835007c-1.761993,-0.334 -3.269989,-0.923004 -5.031006,-1.257996c0,-0.628998 0,-1.258011 0,-1.887009c1.27301,-0.658005 5.531006,0.046997 5.031006,3.145004z" clip-rule="evenodd" fill-rule="evenodd"/>
   <path fill="#ffaaff" id="svg_97" d="m75.313995,135.205994c1.016022,-0.177002 1.083008,0.593994 1.886993,0.628998c-0.786987,6.026978 1.994019,8.487991 3.77301,11.949005c-4.42099,-1.440002 -6.424988,-7.972 -5.660004,-12.578003z" clip-rule="evenodd" fill-rule="evenodd"/>
   <path fill="#ffaaff" id="svg_98" d="m112.419006,135.835007c3.731018,0.386002 7.051025,4.085007 6.917999,6.289001c-2.940002,-1.463028 -6.735992,-2.069016 -6.917999,-6.289001z" clip-rule="evenodd" fill-rule="evenodd"/>
   <path fill="#ffaaff" id="svg_99" d="m59.59198,142.753021c0.582031,-2.981018 1.121033,-6.007004 5.031006,-5.660004c-1.28299,2.280975 -0.542969,6.583984 -5.031006,5.660004z" clip-rule="evenodd" fill-rule="evenodd"/>
   <path fill="#ffaaff" id="svg_100" d="m79.087006,137.093002c1.908997,1.235001 3.769989,2.520004 3.144989,6.289001c-1.514984,0.257004 -1.367004,-1.149002 -3.144989,-0.628983c-0.179016,-2.928024 -1.938019,-3.5 0,-5.660019z" clip-rule="evenodd" fill-rule="evenodd"/>
   <path fill="#ffaaff" id="svg_101" d="m82.231995,137.093002c2.85199,0.464996 6.541016,5.501999 3.77301,7.546005c-2.257019,-1.515015 -2.247009,-5.300018 -3.77301,-7.546005z" clip-rule="evenodd" fill-rule="evenodd"/>
   <path fill="#ffaaff" id="svg_102" d="m111.161011,138.350998c3.562012,3.354996 8.120972,5.714005 11.320007,9.432999c-0.195007,0.854004 -1.575012,0.522003 -2.516022,0.628998c2.313019,4.604004 6.678009,7.158005 8.175995,12.578003c-3.593018,0.23201 -4.684998,-3.30899 -6.917999,-5.660004c-4.048004,-4.259995 -8.522003,-9.383987 -11.949005,-15.092987c0.644012,-0.615005 1.27301,-1.244003 1.887024,-1.887009z" clip-rule="evenodd" fill-rule="evenodd"/>
   <path fill="#ffaaff" id="svg_103" d="m97.953979,140.237c2.460022,0.335999 1.472015,7.057007 -0.628967,6.917007c0.752991,-1.762009 0.691986,-4.339005 0.628967,-6.917007z" clip-rule="evenodd" fill-rule="evenodd"/>
   <path fill="#ffaaff" id="svg_104" d="m92.294006,144.639008c3.742981,1.749023 1.553009,10.813995 0,13.207001c0.862,2.738007 -0.007996,4.218994 -0.628998,6.917999c-3.089996,-2.552994 -3.674988,0.738007 -6.917999,1.257996c4.05899,-5.584 7.778992,-11.507004 7.546997,-21.382996z" clip-rule="evenodd" fill-rule="evenodd"/>
   <path fill="#ffaaff" id="svg_105" d="m84.747986,145.268005c-0.092987,1.375 -1.583984,1.350998 -3.144989,1.258011c-0.644989,-2.113022 1.955994,-0.979019 3.144989,-1.258011z" clip-rule="evenodd" fill-rule="evenodd"/>
   <path fill="#ffaaff" id="svg_106" d="m43.23999,146.526001c3.074005,0.544006 4.248016,4.725998 3.14502,7.546997c-2.655029,-0.908997 -2.640015,-4.487991 -3.14502,-7.546997z" clip-rule="evenodd" fill-rule="evenodd"/>
   <path fill="#ffaaff" id="svg_107" d="m70.911987,148.412994c-0.391968,1.914001 -1.395996,3.214996 -3.77298,3.144989c-2.239014,-3.389984 1.428986,-5.557983 3.77298,-3.144989z" clip-rule="evenodd" fill-rule="evenodd"/>
   <path fill="#ffaaff" id="svg_108" d="m72.798004,147.154999c1.914001,0.391998 3.214996,1.397003 3.144989,3.772995c-2.623993,0.363007 -4.596985,-2.005997 -3.144989,-3.772995z" clip-rule="evenodd" fill-rule="evenodd"/>
   <path fill="#ffaaff" id="svg_109" d="m51.416016,155.959c1.047974,0 2.096985,0 3.144989,0c0,0.837997 0,1.677002 0,2.516006c-2.149994,0.263 -3.584015,-0.190002 -3.144989,-2.516006z" clip-rule="evenodd" fill-rule="evenodd"/>
   <path fill="#ffaaff" id="svg_110" d="m101.727997,155.959c7.092987,0.455002 10.821014,4.272003 13.835999,8.805008c-5.787018,-1.761002 -11.902008,-3.192001 -13.835999,-8.805008z" clip-rule="evenodd" fill-rule="evenodd"/>
   <path fill="#ffaaff" id="svg_111" d="m115.562988,181.115005c-3.274994,0.248001 -6.196991,-3.348999 -8.804993,-5.659988c-2.734009,-2.424011 -5.515991,-5.025009 -7.546997,-7.547012c-1.515015,0.258011 -1.367004,-1.147995 -3.14502,-0.627991c0.104004,-1.990005 -1.67099,-2.102005 -1.257996,-4.402008c2.025024,0.138 2.661011,-1.112 5.031006,-0.628998c5.613007,5.917999 12.619019,10.441986 15.723999,18.865997z" clip-rule="evenodd" fill-rule="evenodd"/>
   <path fill="#ffaaff" id="svg_112" d="m89.778992,167.279999c-0.159973,2.145996 -1.346008,3.266006 -3.77301,3.143997c0.608032,-1.696991 1.577026,-3.034988 3.77301,-3.143997z" clip-rule="evenodd" fill-rule="evenodd"/>
   <path fill="#ffaaff" id="svg_113" d="m85.376007,168.537003c0,0.839005 0,1.677002 0,2.515991c-1.800995,0.124008 -3.432007,0.07901 -3.144989,-1.886993c0.730988,-0.526993 1.686981,-0.828995 3.144989,-0.628998z" clip-rule="evenodd" fill-rule="evenodd"/>
   <path fill="#ffaaff" id="svg_114" d="m57.075989,170.423996c1.801025,-0.123993 3.432007,-0.078003 3.14502,1.887009c-1.801025,0.123993 -3.433014,0.078003 -3.14502,-1.887009z" clip-rule="evenodd" fill-rule="evenodd"/>
   <path fill="#ffaaff" id="svg_115" d="m82.860992,133.319c-1.789001,2.511993 -5.764008,-2.23999 -8.175995,-3.144989c-9.752014,-0.834015 -12.932983,2.498993 -17.609009,5.659988c0.515015,-0.978989 1.445007,-1.837997 1.887024,-2.516006c5.224976,-8.007996 17.356995,-5.938995 23.89798,0.001007z" clip-rule="evenodd" fill-rule="evenodd"/>
   <path fill="#ffaaff" id="svg_116" d="m67.139008,135.835007c0.006012,5.03801 -2.446014,7.615982 -3.77301,11.319992c-2.944977,-3.019989 -1.803986,2.411011 -5.660004,1.887009c0.171021,-2.134995 -0.487,-5.098999 0.628998,-6.288986c1.38501,0.500992 2.511017,1.261993 2.516022,3.143982c3.143005,-2.306 2.843994,-8.054993 6.287994,-10.061996z" clip-rule="evenodd" fill-rule="evenodd"/>
   <path fill="#ffaaff" id="svg_117" d="m50.15802,162.248993c-1.754028,1.389999 -2.232025,4.056 -3.14502,6.289001c-4.893982,3.281998 -6.987,9.363998 -12.578003,11.94899c-1.174011,1.971008 -3.061005,5.873001 -5.660004,4.402008c-1.626984,-1.617004 0.526001,-2.666 1.886993,-3.145004c2.026001,-9.503998 9.933014,-13.125992 13.835022,-20.752991c2.479004,-1.229004 1.922974,1.228989 4.401978,0c-2.110992,-5.341003 -1.886993,-13.142014 -0.628967,-19.496002c3.056976,2.55899 0.453979,6.284988 0.628967,9.432999c0.361023,6.468002 3.57901,11.916992 6.289001,16.35199c3.53302,-1.079987 5.669006,-3.554993 6.289001,-7.546997c6.942017,-5.780991 19.241028,-3.360001 23.269012,3.77301c-7.571991,-0.151001 -19.177002,-1.790009 -23.269012,4.401993c4.801025,-0.811996 14.821014,-4.636002 18.867004,1.886993c-5.996002,0.237 -12.404999,-2.429993 -18.237976,1.258011c0.265991,-1.314011 -0.43103,-1.665009 -0.629028,-2.516006c-5.953979,2.306015 -10.570984,-1.371994 -11.31897,-6.287994z" clip-rule="evenodd" fill-rule="evenodd"/>
  </g>
  <g id="svg_2">
   <path id="svg_3" d="m66.283005,36.098999c2.132996,-0.848 0.983994,2.604004 1.257004,4.402c0.401001,2.639999 1.358002,6.816002 1.257996,11.32c-0.07901,3.571999 -1.71701,7.671005 0,11.32c1.427002,-0.668999 0.23999,-3.952995 0.628998,-5.659996c2.278,2.542999 0.865997,8.776993 1.257996,13.207001c1.945007,-0.151001 -0.983002,-5.17601 1.886993,-4.402008c1.322006,2.451004 0.315002,7.23201 0.628998,10.69101c-1.686981,-0.82901 -1.043991,-3.987 -1.886993,-5.660004c-1.218994,2.119003 -2.018005,6.981003 0,8.805008c-3.304993,1.613983 -1.354996,-10.771011 -1.886993,-15.723007c-2.572006,7.237 -0.188004,13.953003 0,22.641006c-1.987,1.906982 -2.470001,1.406982 -5.660004,1.886993c0.175995,-1.434006 -0.151993,-2.363998 -1.257996,-2.516006c1.011993,-17.451004 2.007996,-32.802994 3.774002,-50.311996zm-1.258011,50.940002c0.631012,-0.001999 0.748001,0.509003 1.258011,0.628998c-0.060013,-0.988007 0.084,-2.181 -1.258011,-1.886993c0,0.418991 0,0.838989 0,1.257996z" clip-rule="evenodd" fill-rule="evenodd"/>
   <path id="svg_4" d="m74.458008,70.05899c1.343994,2.849014 2.119995,6.266006 6.289001,6.289001c-0.627014,0.840012 -1.700012,1.235016 -1.887009,2.516006c-2.494003,-1.455994 -1.80101,0.74501 -4.401993,0.628998c0.149994,-3.108994 -1.684998,-6.796997 0,-9.434006z" clip-rule="evenodd" fill-rule="evenodd"/>
   <path id="svg_5" d="m59.994003,78.863007c4.251999,2.432999 -1.233002,4.608994 -0.628998,8.804993c-4.125,2.792999 -5.147003,8.688004 -9.434006,11.320007c0.31601,-9.747009 6.464996,-13.661011 10.063004,-20.125z" clip-rule="evenodd" fill-rule="evenodd"/>
   <path id="svg_6" d="m79.48999,80.121002c1.657013,-0.188995 2.064011,0.871002 1.887009,2.515991c-0.837997,0 -1.677002,0 -2.516006,0c-0.265991,-1.315002 0.431,-1.665985 0.628998,-2.515991z" clip-rule="evenodd" fill-rule="evenodd"/>
   <path id="svg_7" d="m85.149994,83.895004c0.628998,0 1.257996,0 1.887009,0c5.686005,7.102005 10.807999,14.766998 13.207001,25.155991c-3.645004,-3.884995 -4.762009,-8.959991 -7.546997,-13.207001c-2.51001,-3.826996 -7.009003,-6.712997 -7.547012,-11.94899z" clip-rule="evenodd" fill-rule="evenodd"/>
   <path id="svg_8" d="m115.966003,85.152008c-2.520996,7.332001 -5.298004,14.40799 -7.546997,22.010986c1.585999,-1.557983 2.536987,-3.751984 3.772995,-5.660004c3.681,4.404999 -3.93898,7.57901 -4.402008,11.949005c2.636002,0.119995 1.944,-3.087006 5.031006,-2.515991c1.328003,3.013 -2.445999,5.779999 -4.401993,7.54599c1.401001,1.429016 3.865997,-2.110016 5.659973,-0.628998c-0.5,3.274002 -4.024979,3.520996 -6.917969,4.402008c0.184982,-1.460007 1.579987,-2.947006 -1.258011,-2.516006c0.294998,-4.242996 0.294998,-7.322998 1.886993,-11.319992c-1.557999,2.005997 -2.302994,4.824997 -3.772995,6.916992c-3.080994,-0.710999 -1.804001,-5.776001 0,-6.916992c0.456009,-10.445007 7.264999,-14.53801 9.43399,-23.269012c0.837006,0.002014 1.67601,0.002014 2.515015,0.002014z" clip-rule="evenodd" fill-rule="evenodd"/>
   <path id="svg_9" d="m83.891998,88.296997c4.294998,1.994003 6.247009,6.330994 8.175003,10.69101c-4.611008,-1.677002 -6.513992,-6.063995 -8.175003,-10.69101z" clip-rule="evenodd" fill-rule="evenodd"/>
   <path id="svg_10" d="m68.798004,90.811996c-0.070007,1.60701 -2.105011,1.249008 -3.77301,1.258011c0.304001,-2.181 2.388,-1.605011 3.77301,-1.258011z" clip-rule="evenodd" fill-rule="evenodd"/>
   <path id="svg_11" d="m56.850006,92.070007c2.694992,-0.098999 -0.658997,2.567993 -0.628998,3.772995c0.546997,1.856995 0.940994,-1.459 2.515991,-0.629013c-1.852005,4.228012 -4.244995,7.914001 -8.175995,10.062012c1.513,-5.044006 3.054001,-8.790009 6.289001,-13.205994z" clip-rule="evenodd" fill-rule="evenodd"/>
   <path id="svg_12" d="m68.798004,92.699005c-0.248001,2.057999 -3.082001,1.529999 -5.031006,1.886993c-0.035004,-2.341003 2.798004,-1.813995 5.031006,-1.886993z" clip-rule="evenodd" fill-rule="evenodd"/>
   <path id="svg_13" d="m82.634003,93.328003c3.690002,2.179993 5.842987,5.895996 7.546997,10.061996c-4.417999,-1.113998 -7.222,-6.921997 -7.546997,-10.061996z" clip-rule="evenodd" fill-rule="evenodd"/>
   <path id="svg_14" d="m68.798004,96.472c0.345001,1.520004 -4.917007,2.279007 -4.402008,0c1.432007,-0.305008 3.213013,-1.246994 4.402008,0z" clip-rule="evenodd" fill-rule="evenodd"/>
   <path id="svg_15" d="m88.294006,105.906006c-3.869995,-0.743011 -5.449005,-3.774002 -6.917999,-6.917999c2.780991,-0.514008 5.436996,4.082001 6.917999,6.917999z" clip-rule="evenodd" fill-rule="evenodd"/>
   <path id="svg_16" d="m69.427002,99.617004c0.278992,1.588989 -5.455994,2.268997 -5.031006,0c1.477005,-1.486008 3.089996,0.10199 5.031006,0z" clip-rule="evenodd" fill-rule="evenodd"/>
   <path id="svg_17" d="m55.591995,102.132004c3.090012,1.134995 -1.733994,4.300003 -2.515991,5.659988c-2.210999,-2.457001 2.789001,-3.052994 2.515991,-5.659988z" clip-rule="evenodd" fill-rule="evenodd"/>
   <path id="svg_18" d="m68.169006,102.132004c0.410995,2.507004 -2.391006,1.800995 -4.402008,1.886993c0.477005,-1.619995 2.007996,-2.184998 4.402008,-1.886993z" clip-rule="evenodd" fill-rule="evenodd"/>
   <path id="svg_19" d="m80.119003,103.389999c3.051987,-1.565994 4.662003,3.709 5.659988,6.289001c-3.475983,-0.507004 -3.108994,-4.858002 -5.659988,-6.289001z" clip-rule="evenodd" fill-rule="evenodd"/>
   <path id="svg_20" d="m67.541,105.277008c1.285995,3.289001 -4.998001,3.526001 -4.401993,0.628998c0.809998,-0.867004 2.730988,-0.623016 4.401993,-0.628998z" clip-rule="evenodd" fill-rule="evenodd"/>
   <path id="svg_21" d="m78.231995,106.535004c2.453003,-0.759003 5.078003,3.713989 5.031006,7.54599c-1.912994,-0.602997 -1.274002,-3.756989 -4.402008,-3.143997c-0.373993,-1.302994 0.777008,-4.130997 -0.628998,-4.401993z" clip-rule="evenodd" fill-rule="evenodd"/>
   <path id="svg_22" d="m56.850006,107.164001c-0.374008,2.35199 -0.984009,4.466995 -3.77301,4.402008c0.373001,-2.35202 0.983002,-4.46701 3.77301,-4.402008z" clip-rule="evenodd" fill-rule="evenodd"/>
   <path id="svg_23" d="m42.384995,109.050003c0.629013,0 1.258011,0 1.887009,0c-1.294006,6.373001 -5.468002,14.216003 -5.660004,21.382004c-0.113998,4.256989 2.667999,7.867996 1.257996,11.94899c-2.549988,-1.667999 -3.000992,-5.904999 -3.143997,-8.805008c-0.39299,-7.931 3.466003,-17.908997 5.658997,-24.525986z" clip-rule="evenodd" fill-rule="evenodd"/>
   <path id="svg_24" d="m62.509995,109.050003c1.048004,0 2.096008,0 3.145004,0c0.475998,1.899994 -4.113007,3.128006 -3.145004,0z" clip-rule="evenodd" fill-rule="evenodd"/>
   <path id="svg_25" d="m45.528992,111.56601c0.959015,8.330994 -6.303986,15.228989 -3.144989,27.041992c-1.835007,-0.503998 -1.737,-2.714005 -1.886993,-3.772995c-1.153015,-8.167999 2.340988,-16.557007 5.031982,-23.268997z" clip-rule="evenodd" fill-rule="evenodd"/>
   <path id="svg_26" d="m78.860992,114.080994c0.102005,-0.737 1.146011,-0.529999 1.887009,-0.627991c0.528,0.729996 0.830002,1.686005 0.628998,3.143997c-1.477005,-0.201004 -1.408005,-1.947006 -2.516006,-2.516006z" clip-rule="evenodd" fill-rule="evenodd"/>
   <path id="svg_27" d="m64.395996,116.597c1.257996,0 2.514999,0 3.77301,0c0.694,2.62001 -4.466003,2.62001 -3.77301,0z" clip-rule="evenodd" fill-rule="evenodd"/>
   <path id="svg_28" d="m46.158005,117.854004c3.251999,3.412994 -1.751999,8.462997 -1.887009,12.578003c-2.832993,-2.993011 1.501999,-8.712006 1.887009,-12.578003z" clip-rule="evenodd" fill-rule="evenodd"/>
   <path id="svg_29" d="m78.860992,117.854004c1.372009,-0.113983 2.001007,0.514999 1.887009,1.886993c-0.628998,0 -1.258011,0 -1.887009,0c0,-0.628998 0,-1.257996 0,-1.886993z" clip-rule="evenodd" fill-rule="evenodd"/>
   <path id="svg_30" d="m68.169006,121.628021c-1.975006,-2.124008 -4.361008,1.44899 -5.660004,0c0.720001,-1.621017 6.098999,-4.544022 5.660004,0z" clip-rule="evenodd" fill-rule="evenodd"/>
   <path id="svg_31" d="m102.130005,120.369995c3.651993,2.251007 6.675003,13.727997 1.257996,15.722992c0.304993,-5.965988 -0.972,-10.348984 -1.257996,-15.722992z" clip-rule="evenodd" fill-rule="evenodd"/>
   <path id="svg_32" d="m109.677002,122.257004c1.048004,0 2.097,0 3.145004,0c0.475998,1.899994 -4.113007,3.127975 -3.145004,0z" clip-rule="evenodd" fill-rule="evenodd"/>
   <path id="svg_33" d="m78.231995,127.287994c-5.11499,0.083008 -8.292999,-1.768997 -12.578003,-2.515991c-1.965988,0.459991 -4.529999,2.557999 -6.288986,1.257996c2.271988,-3.289001 12.160995,-4.705994 14.464005,-0.628998c1.954987,-0.942993 4.384979,-0.735001 4.402985,1.886993l0,0z" clip-rule="evenodd" fill-rule="evenodd"/>
   <path id="svg_34" d="m48.044998,124.772003c2.692001,-0.001007 0.48201,4.203003 0,5.030991c-2.746002,-0.051987 0.314011,-3.405991 0,-5.030991z" clip-rule="evenodd" fill-rule="evenodd"/>
   <path id="svg_35" d="m108.419006,126.658997c2.109009,-0.013 4.192001,0 3.77301,2.516006c-2.109024,0.013 -4.192017,0 -3.77301,-2.516006z" clip-rule="evenodd" fill-rule="evenodd"/>
   <path id="svg_36" d="m102.759003,129.175003c-0.278992,7.541 -0.128998,13.232986 -3.77301,18.237991c-2.243988,-0.53299 -0.074982,-1.548996 -0.628998,-3.772995c-1.020996,1.076004 -1.903992,2.289001 -1.886993,4.402008c-1.774002,-2.498001 0.625992,-10.892014 1.257996,-15.093002c1.416992,2.73999 1.238007,6.108994 0.628998,9.43399c4.255005,-2.970001 -0.266998,-11.373993 4.402008,-13.207993z" clip-rule="evenodd" fill-rule="evenodd"/>
   <path id="svg_37" d="m68.169006,131.690002c-0.723007,1.231995 -4.412003,3.416992 -4.402008,0c1.781998,-0.654999 2.621002,-0.654999 4.402008,0z" clip-rule="evenodd" fill-rule="evenodd"/>
   <path id="svg_38" d="m114.078979,134.835007c-1.761993,-0.334 -3.269989,-0.923004 -5.030991,-1.257996c0,-0.628998 0,-1.258011 0,-1.887009c1.27301,-0.658005 5.530991,0.046997 5.030991,3.145004z" clip-rule="evenodd" fill-rule="evenodd"/>
   <path id="svg_39" d="m71.313995,134.205994c1.016006,-0.177002 1.083008,0.593994 1.886993,0.628998c-0.786987,6.026978 1.994019,8.487991 3.77301,11.949005c-4.42099,-1.440002 -6.424988,-7.972 -5.660004,-12.578003z" clip-rule="evenodd" fill-rule="evenodd"/>
   <path id="svg_40" d="m108.419006,134.835007c3.731003,0.386002 7.05101,4.085007 6.917999,6.289001c-2.940002,-1.463028 -6.736008,-2.069016 -6.917999,-6.289001z" clip-rule="evenodd" fill-rule="evenodd"/>
   <path id="svg_41" d="m55.591995,141.753021c0.582001,-2.981018 1.121002,-6.007004 5.031006,-5.660004c-1.283005,2.280975 -0.542999,6.583984 -5.031006,5.660004z" clip-rule="evenodd" fill-rule="evenodd"/>
   <path id="svg_42" d="m75.087006,136.093002c1.908997,1.235001 3.769989,2.520004 3.144989,6.289001c-1.514984,0.257004 -1.367004,-1.149002 -3.144989,-0.628983c-0.179016,-2.928024 -1.938004,-3.5 0,-5.660019z" clip-rule="evenodd" fill-rule="evenodd"/>
   <path id="svg_43" d="m78.231995,136.093002c2.852005,0.464996 6.541016,5.501999 3.77301,7.546005c-2.257004,-1.515015 -2.247009,-5.300018 -3.77301,-7.546005z" clip-rule="evenodd" fill-rule="evenodd"/>
   <path id="svg_44" d="m107.161011,137.350998c3.561996,3.354996 8.120987,5.714005 11.319992,9.432999c-0.194992,0.854004 -1.574997,0.522003 -2.516006,0.628998c2.313004,4.604004 6.678009,7.158005 8.175995,12.578003c-3.593002,0.23201 -4.684998,-3.30899 -6.917999,-5.660004c-4.048004,-4.259995 -8.522003,-9.383987 -11.949005,-15.092987c0.644012,-0.615005 1.27301,-1.244003 1.887024,-1.887009z" clip-rule="evenodd" fill-rule="evenodd"/>
   <path id="svg_45" d="m93.953979,139.237c2.460007,0.335999 1.472015,7.057007 -0.628983,6.917007c0.753006,-1.762009 0.692001,-4.339005 0.628983,-6.917007z" clip-rule="evenodd" fill-rule="evenodd"/>
   <path id="svg_46" d="m88.294006,143.639008c3.742996,1.749023 1.553009,10.813995 0,13.207001c0.862,2.738007 -0.007996,4.218994 -0.628998,6.917999c-3.089996,-2.552994 -3.674988,0.738007 -6.917999,1.257996c4.05899,-5.584 7.778992,-11.507004 7.546997,-21.382996z" clip-rule="evenodd" fill-rule="evenodd"/>
   <path id="svg_47" d="m80.748001,144.268005c-0.093002,1.375 -1.584,1.350998 -3.145004,1.258011c-0.644989,-2.113022 1.955994,-0.979019 3.145004,-1.258011z" clip-rule="evenodd" fill-rule="evenodd"/>
   <path id="svg_48" d="m39.240005,145.526001c3.07399,0.544006 4.248001,4.725998 3.144989,7.546997c-2.654999,-0.908997 -2.639999,-4.487991 -3.144989,-7.546997z" clip-rule="evenodd" fill-rule="evenodd"/>
   <path id="svg_49" d="m66.912003,147.412994c-0.391998,1.914001 -1.396011,3.214996 -3.772995,3.144989c-2.239014,-3.389984 1.428986,-5.557983 3.772995,-3.144989z" clip-rule="evenodd" fill-rule="evenodd"/>
   <path id="svg_50" d="m68.798004,146.154999c1.914001,0.391998 3.214996,1.397003 3.144989,3.772995c-2.623993,0.363007 -4.596985,-2.005997 -3.144989,-3.772995z" clip-rule="evenodd" fill-rule="evenodd"/>
   <path id="svg_51" d="m47.416,154.959c1.048004,0 2.097,0 3.145004,0c0,0.837997 0,1.677002 0,2.516006c-2.150009,0.263 -3.584,-0.190002 -3.145004,-2.516006z" clip-rule="evenodd" fill-rule="evenodd"/>
   <path id="svg_52" d="m97.727997,154.959c7.093002,0.455002 10.821014,4.272003 13.835999,8.805008c-5.787003,-1.761002 -11.901993,-3.192001 -13.835999,-8.805008z" clip-rule="evenodd" fill-rule="evenodd"/>
   <path id="svg_53" d="m111.563004,180.115005c-3.275009,0.248001 -6.197006,-3.348999 -8.805008,-5.659988c-2.733994,-2.424011 -5.515991,-5.025009 -7.546997,-7.547012c-1.514999,0.258011 -1.367004,-1.147995 -3.14502,-0.627991c0.104019,-1.990005 -1.67099,-2.102005 -1.25798,-4.402008c2.024994,0.138 2.660995,-1.112 5.030991,-0.628998c5.613007,5.917999 12.619003,10.441986 15.724014,18.865997z" clip-rule="evenodd" fill-rule="evenodd"/>
   <path id="svg_54" d="m85.778992,166.279999c-0.159988,2.145996 -1.345993,3.266006 -3.772995,3.143997c0.608002,-1.696991 1.577011,-3.034988 3.772995,-3.143997z" clip-rule="evenodd" fill-rule="evenodd"/>
   <path id="svg_55" d="m81.376007,167.537003c0,0.839005 0,1.677002 0,2.515991c-1.80101,0.124008 -3.432007,0.07901 -3.145004,-1.886993c0.731003,-0.526993 1.686996,-0.828995 3.145004,-0.628998z" clip-rule="evenodd" fill-rule="evenodd"/>
   <path id="svg_56" d="m53.076004,169.423996c1.800995,-0.123993 3.431992,-0.078003 3.145004,1.887009c-1.80101,0.123993 -3.433014,0.078003 -3.145004,-1.887009z" clip-rule="evenodd" fill-rule="evenodd"/>
   <path id="svg_57" d="m78.860992,132.319c-1.789001,2.511993 -5.763992,-2.23999 -8.175995,-3.144989c-9.751999,-0.834015 -12.932999,2.498993 -17.608994,5.659988c0.514999,-0.978989 1.444992,-1.837997 1.886993,-2.516006c5.225006,-8.007996 17.35701,-5.938995 23.897995,0.001007z" clip-rule="evenodd" fill-rule="evenodd"/>
   <path id="svg_58" d="m63.139008,134.835007c0.005997,5.03801 -2.446014,7.615982 -3.77301,11.319992c-2.944992,-3.019989 -1.804001,2.411011 -5.660004,1.887009c0.171005,-2.134995 -0.487,-5.098999 0.628998,-6.288986c1.38501,0.500992 2.511017,1.261993 2.516006,3.143982c3.143005,-2.306 2.844009,-8.054993 6.28801,-10.061996z" clip-rule="evenodd" fill-rule="evenodd"/>
   <path id="svg_59" d="m46.158005,161.248993c-1.754013,1.389999 -2.23201,4.056 -3.145004,6.289001c-4.893997,3.281998 -6.987,9.363998 -12.578003,11.94899c-1.173996,1.971008 -3.061005,5.873001 -5.660004,4.402008c-1.626984,-1.617004 0.526001,-2.666 1.887009,-3.145004c2.026001,-9.503998 9.932999,-13.125992 13.835007,-20.752991c2.478989,-1.229004 1.922989,1.228989 4.401993,0c-2.111008,-5.341003 -1.887009,-13.142014 -0.628998,-19.496002c3.056992,2.55899 0.453995,6.284988 0.628998,9.432999c0.360992,6.468002 3.578995,11.916992 6.289001,16.35199c3.533005,-1.079987 5.668991,-3.554993 6.289001,-7.546997c6.942001,-5.780991 19.240997,-3.360001 23.268997,3.77301c-7.571991,-0.151001 -19.177002,-1.790009 -23.268997,4.401993c4.800995,-0.811996 14.820999,-4.636002 18.866989,1.886993c-5.996002,0.237 -12.404999,-2.429993 -18.237991,1.258011c0.266006,-1.314011 -0.431,-1.665009 -0.628998,-2.516006c-5.95401,2.306015 -10.570999,-1.371994 -11.319,-6.287994z" clip-rule="evenodd" fill-rule="evenodd"/>
  </g>
 </g>
</svg>
