<svg width="640" height="480" xmlns="http://www.w3.org/2000/svg">
 <title>front looking fish</title>
 <g>
  <title>Layer 1</title>
  <g id="svg_1">
   <path fill-rule="evenodd" clip-rule="evenodd" d="m63.282997,10.098999c2.133003,-0.848 0.984001,2.604 1.257004,4.402c0.401001,2.639999 1.358002,6.816002 1.257996,11.32c-0.078995,3.571999 -1.716995,7.670998 0,11.32c1.427002,-0.668999 0.240005,-3.952995 0.629005,-5.659996c2.278,2.542999 0.865997,8.777 1.257996,13.207001c1.945,-0.151001 -0.982994,-5.176003 1.887001,-4.402c1.321999,2.450996 0.315002,7.231995 0.628998,10.690994c-1.686996,-0.828995 -1.043999,-3.987 -1.886993,-5.659996c-1.219002,2.118996 -2.018005,6.980995 0,8.805c-3.305,1.613998 -1.355003,-10.771004 -1.887001,-15.723c-2.571999,7.237 -0.188004,13.952995 0,22.640999c-1.987,1.906998 -2.470001,1.406998 -5.660004,1.887001c0.176003,-1.434006 -0.152,-2.363998 -1.257996,-2.515999c1.012001,-17.451004 2.007996,-32.803001 3.773994,-50.312004zm-1.257996,50.940002c0.630997,-0.001999 0.748001,0.508995 1.257996,0.628998c-0.059998,-0.987999 0.084,-2.181 -1.257996,-1.887001c0,0.418999 0,0.839005 0,1.258003z"/>
   <path fill-rule="evenodd" clip-rule="evenodd" d="m71.458,44.058998c1.344002,2.848999 2.120003,6.265999 6.289001,6.289001c-0.626999,0.840004 -1.700005,1.235001 -1.887001,2.515999c-2.494003,-1.456001 -1.801003,0.745003 -4.402,0.628998c0.150002,-3.108994 -1.684998,-6.796997 0,-9.433998z"/>
   <path fill-rule="evenodd" clip-rule="evenodd" d="m56.994003,52.862999c4.251999,2.432999 -1.233002,4.609001 -0.629005,8.805c-4.125,2.792999 -5.146996,8.688004 -9.433998,11.32c0.316002,-9.747002 6.465004,-13.660995 10.063004,-20.125z"/>
   <path fill-rule="evenodd" clip-rule="evenodd" d="m76.489998,54.121002c1.657005,-0.189003 2.064003,0.870995 1.887001,2.515999c-0.837997,0 -1.677002,0 -2.515999,0c-0.265999,-1.315002 0.431,-1.666 0.628998,-2.515999z"/>
   <path fill-rule="evenodd" clip-rule="evenodd" d="m82.150002,57.894997c0.628998,0 1.257996,0 1.887001,0c5.686005,7.102005 10.807999,14.767006 13.207001,25.156006c-3.645004,-3.885002 -4.762009,-8.959999 -7.546997,-13.207001c-2.51001,-3.827003 -7.009003,-6.713005 -7.547005,-11.949005z"/>
   <path fill-rule="evenodd" clip-rule="evenodd" d="m112.966003,59.152c-2.520996,7.332001 -5.298004,14.407997 -7.546997,22.011002c1.585999,-1.557999 2.536987,-3.751999 3.772995,-5.660004c3.681,4.404999 -3.938995,7.579002 -4.402008,11.949005c2.636002,0.119995 1.944,-3.087006 5.031006,-2.516006c1.328003,3.013 -2.445999,5.780006 -4.401993,7.545998c1.401001,1.429001 3.865997,-2.110001 5.659988,-0.628998c-0.5,3.274002 -4.024994,3.520996 -6.917999,4.402008c0.184998,-1.460007 1.580002,-2.947006 -1.257996,-2.516006c0.294998,-4.242996 0.294998,-7.322998 1.886993,-11.32c-1.557999,2.006004 -2.302994,4.825005 -3.772995,6.917c-3.080994,-0.710999 -1.804001,-5.776001 0,-6.917c0.456009,-10.445 7.264999,-14.538002 9.434006,-23.268997c0.83699,0.001999 1.675995,0.001999 2.514999,0.001999z"/>
   <path fill-rule="evenodd" clip-rule="evenodd" d="m80.891998,62.296997c4.294998,1.994003 6.247009,6.331001 8.175003,10.691002c-4.611,-1.677002 -6.514,-6.063995 -8.175003,-10.691002z"/>
   <path fill-rule="evenodd" clip-rule="evenodd" d="m65.797997,64.811996c-0.07,1.607002 -2.104996,1.249001 -3.772995,1.258003c0.304001,-2.181 2.388,-1.605003 3.772995,-1.258003z"/>
   <path fill-rule="evenodd" clip-rule="evenodd" d="m53.849998,66.07c2.695,-0.098999 -0.658997,2.568001 -0.628998,3.773003c0.546997,1.856995 0.941002,-1.459 2.515999,-0.629005c-1.851997,4.228004 -4.245003,7.914001 -8.176003,10.062004c1.513,-5.043999 3.054001,-8.790001 6.289001,-13.206001z"/>
   <path fill-rule="evenodd" clip-rule="evenodd" d="m65.797997,66.698997c-0.247993,2.058006 -3.081993,1.529999 -5.030998,1.887001c-0.034996,-2.340996 2.798004,-1.813995 5.030998,-1.887001z"/>
   <path fill-rule="evenodd" clip-rule="evenodd" d="m79.634003,67.328003c3.689995,2.18 5.843002,5.895996 7.546997,10.061996c-4.417999,-1.113998 -7.222,-6.921997 -7.546997,-10.061996z"/>
   <path fill-rule="evenodd" clip-rule="evenodd" d="m65.797997,70.472c0.345001,1.519997 -4.917,2.278999 -4.401993,0c1.431999,-0.305 3.212997,-1.247002 4.401993,0z"/>
   <path fill-rule="evenodd" clip-rule="evenodd" d="m85.294006,79.905998c-3.869995,-0.742996 -5.448997,-3.773994 -6.917999,-6.917999c2.780991,-0.514 5.436996,4.082001 6.917999,6.917999z"/>
   <path fill-rule="evenodd" clip-rule="evenodd" d="m66.427002,73.616997c0.278999,1.589005 -5.456001,2.269005 -5.030998,0c1.476997,-1.486 3.089996,0.102005 5.030998,0z"/>
   <path fill-rule="evenodd" clip-rule="evenodd" d="m52.592003,76.132004c3.089996,1.134995 -1.734001,4.299995 -2.516006,5.659996c-2.210999,-2.457001 2.789001,-3.053001 2.516006,-5.659996z"/>
   <path fill-rule="evenodd" clip-rule="evenodd" d="m65.168999,76.132004c0.411003,2.506996 -2.390999,1.800995 -4.402,1.886993c0.477005,-1.619995 2.008003,-2.184998 4.402,-1.886993z"/>
   <path fill-rule="evenodd" clip-rule="evenodd" d="m77.119003,77.389999c3.051994,-1.566002 4.661995,3.709 5.659996,6.289001c-3.475998,-0.507004 -3.109001,-4.858002 -5.659996,-6.289001z"/>
   <path fill-rule="evenodd" clip-rule="evenodd" d="m64.541,79.277c1.286003,3.289001 -4.998001,3.526001 -4.402,0.628998c0.809998,-0.866997 2.731003,-0.623001 4.402,-0.628998z"/>
   <path fill-rule="evenodd" clip-rule="evenodd" d="m75.232002,80.535004c2.452995,-0.759003 5.077995,3.713997 5.030998,7.545998c-1.913002,-0.603004 -1.274002,-3.757004 -4.402,-3.144005c-0.374001,-1.302994 0.777,-4.130997 -0.628998,-4.401993z"/>
   <path fill-rule="evenodd" clip-rule="evenodd" d="m53.849998,81.164001c-0.374001,2.351997 -0.984001,4.466995 -3.772995,4.402c0.372993,-2.352005 0.982994,-4.467003 3.772995,-4.402z"/>
   <path fill-rule="evenodd" clip-rule="evenodd" d="m39.385002,83.050003c0.628998,0 1.257996,0 1.887001,0c-1.294006,6.372993 -5.468002,14.216003 -5.660004,21.382004c-0.113998,4.256989 2.667999,7.867996 1.258003,11.94899c-2.550003,-1.667999 -3.000999,-5.904999 -3.144005,-8.804993c-0.392998,-7.931 3.466003,-17.909004 5.659004,-24.526001z"/>
   <path fill-rule="evenodd" clip-rule="evenodd" d="m59.510002,83.050003c1.047997,0 2.096001,0 3.144997,0c0.475998,1.899994 -4.112999,3.127998 -3.144997,0z"/>
   <path fill-rule="evenodd" clip-rule="evenodd" d="m42.528999,85.566002c0.959,8.331001 -6.304001,15.228996 -3.144997,27.042c-1.834999,-0.503998 -1.737,-2.714005 -1.887001,-3.772995c-1.153,-8.167999 2.340996,-16.557007 5.031998,-23.269005z"/>
   <path fill-rule="evenodd" clip-rule="evenodd" d="m75.861,88.081001c0.101997,-0.737 1.146004,-0.529999 1.887001,-0.627998c0.528,0.729996 0.830002,1.685997 0.628998,3.143997c-1.476997,-0.201004 -1.407997,-1.946999 -2.515999,-2.515999z"/>
   <path fill-rule="evenodd" clip-rule="evenodd" d="m61.396004,90.597c1.257996,0 2.514999,0 3.772995,0c0.694,2.619995 -4.465996,2.619995 -3.772995,0z"/>
   <path fill-rule="evenodd" clip-rule="evenodd" d="m43.157997,91.854004c3.252007,3.412994 -1.751999,8.462997 -1.886993,12.578003c-2.833,-2.993011 1.501999,-8.712006 1.886993,-12.578003z"/>
   <path fill-rule="evenodd" clip-rule="evenodd" d="m75.861,91.854004c1.372002,-0.113998 2.000999,0.514999 1.887001,1.886993c-0.628998,0 -1.258003,0 -1.887001,0c0,-0.628998 0,-1.257996 0,-1.886993z"/>
   <path fill-rule="evenodd" clip-rule="evenodd" d="m65.168999,95.628006c-1.974998,-2.123993 -4.361,1.449005 -5.659996,0c0.719994,-1.621002 6.098999,-4.544006 5.659996,0z"/>
   <path fill-rule="evenodd" clip-rule="evenodd" d="m99.130005,94.369995c3.651993,2.251007 6.675003,13.727997 1.257996,15.722992c0.304993,-5.965988 -0.972,-10.348984 -1.257996,-15.722992z"/>
   <path fill-rule="evenodd" clip-rule="evenodd" d="m106.677002,96.257004c1.048004,0 2.097,0 3.145004,0c0.475998,1.899994 -4.113007,3.127991 -3.145004,0z"/>
   <path fill-rule="evenodd" clip-rule="evenodd" d="m75.232002,101.287994c-5.115005,0.082993 -8.292999,-1.768997 -12.578003,-2.516006c-1.965996,0.460007 -4.529999,2.557999 -6.289001,1.257996c2.272003,-3.288986 12.161003,-4.705994 14.464005,-0.628998c1.954994,-0.942993 4.384995,-0.734985 4.403,1.887009z"/>
   <path fill-rule="evenodd" clip-rule="evenodd" d="m45.044998,98.772003c2.692001,-0.001007 0.482002,4.203003 0,5.030991c-2.745995,-0.051987 0.314003,-3.405991 0,-5.030991z"/>
   <path fill-rule="evenodd" clip-rule="evenodd" d="m105.419006,100.658997c2.109009,-0.013 4.192001,0 3.77301,2.516006c-2.109024,0.013 -4.192017,0 -3.77301,-2.516006z"/>
   <path fill-rule="evenodd" clip-rule="evenodd" d="m99.759003,103.175003c-0.279007,7.541 -0.128998,13.233002 -3.77301,18.237991c-2.243988,-0.53299 -0.074997,-1.548996 -0.628998,-3.772995c-1.020996,1.076004 -1.903992,2.289001 -1.886993,4.402008c-1.774002,-2.498001 0.625992,-10.892014 1.257996,-15.093002c1.417007,2.73999 1.238007,6.108994 0.628998,9.43399c4.255005,-2.970001 -0.266998,-11.373993 4.402008,-13.207993z"/>
   <path fill-rule="evenodd" clip-rule="evenodd" d="m65.168999,105.690002c-0.723,1.231995 -4.411995,3.416992 -4.402,0c1.782005,-0.654999 2.621002,-0.654999 4.402,0z"/>
   <path fill-rule="evenodd" clip-rule="evenodd" d="m111.078995,108.835007c-1.762009,-0.334 -3.270004,-0.923004 -5.031006,-1.257996c0,-0.628998 0,-1.257996 0,-1.887009c1.27301,-0.658005 5.531006,0.046997 5.031006,3.145004z"/>
   <path fill-rule="evenodd" clip-rule="evenodd" d="m68.314003,108.205994c1.015999,-0.177002 1.083,0.593994 1.886993,0.628998c-0.786995,6.026993 1.994003,8.487991 3.773003,11.949005c-4.420998,-1.440002 -6.424995,-7.972 -5.659996,-12.578003z"/>
   <path fill-rule="evenodd" clip-rule="evenodd" d="m105.419006,108.835007c3.731003,0.386002 7.05101,4.085007 6.917999,6.289001c-2.940002,-1.463013 -6.736008,-2.069016 -6.917999,-6.289001z"/>
   <path fill-rule="evenodd" clip-rule="evenodd" d="m52.592003,115.753006c0.582001,-2.981003 1.120995,-6.006989 5.030998,-5.659988c-1.283005,2.280975 -0.542999,6.583984 -5.030998,5.659988z"/>
   <path fill-rule="evenodd" clip-rule="evenodd" d="m72.086998,110.093002c1.909004,1.235001 3.770004,2.520004 3.145004,6.289001c-1.514999,0.257004 -1.367004,-1.149002 -3.145004,-0.628998c-0.179001,-2.928009 -1.937996,-3.5 0,-5.660004z"/>
   <path fill-rule="evenodd" clip-rule="evenodd" d="m75.232002,110.093002c2.851997,0.464996 6.541,5.501999 3.772995,7.546005c-2.256996,-1.515015 -2.246994,-5.300003 -3.772995,-7.546005z"/>
   <path fill-rule="evenodd" clip-rule="evenodd" d="m104.160995,111.350998c3.562012,3.354996 8.121002,5.714005 11.320007,9.432999c-0.195007,0.854004 -1.574997,0.522003 -2.516006,0.628998c2.313004,4.604004 6.678009,7.158005 8.175995,12.578003c-3.593002,0.23201 -4.684998,-3.30899 -6.917999,-5.660004c-4.048004,-4.259995 -8.522003,-9.383987 -11.949005,-15.092987c0.644012,-0.615005 1.27301,-1.244003 1.887009,-1.887009z"/>
   <path fill-rule="evenodd" clip-rule="evenodd" d="m90.953995,113.237c2.459991,0.335999 1.472,7.057007 -0.628998,6.917007c0.753006,-1.762009 0.692001,-4.339005 0.628998,-6.917007z"/>
   <path fill-rule="evenodd" clip-rule="evenodd" d="m85.294006,117.639008c3.742996,1.749008 1.553009,10.813995 0,13.207001c0.862,2.738007 -0.007996,4.218994 -0.628998,6.917999c-3.089996,-2.552994 -3.674995,0.738007 -6.917999,1.257996c4.05899,-5.584 7.778992,-11.507004 7.546997,-21.382996z"/>
   <path fill-rule="evenodd" clip-rule="evenodd" d="m77.748001,118.268005c-0.093002,1.375 -1.584,1.350998 -3.145004,1.258011c-0.644997,-2.113022 1.956001,-0.979019 3.145004,-1.258011z"/>
   <path fill-rule="evenodd" clip-rule="evenodd" d="m36.239998,119.526001c3.074005,0.544006 4.248001,4.725998 3.145004,7.546997c-2.654999,-0.908997 -2.639999,-4.487991 -3.145004,-7.546997z"/>
   <path fill-rule="evenodd" clip-rule="evenodd" d="m63.912003,121.412994c-0.392006,1.914001 -1.396004,3.214996 -3.773003,3.144989c-2.238998,-3.389984 1.429001,-5.557983 3.773003,-3.144989z"/>
   <path fill-rule="evenodd" clip-rule="evenodd" d="m65.797997,120.154999c1.914001,0.391998 3.215004,1.397003 3.145004,3.772995c-2.624001,0.363007 -4.597,-2.005997 -3.145004,-3.772995z"/>
   <path fill-rule="evenodd" clip-rule="evenodd" d="m44.416,128.959c1.047997,0 2.097,0 3.144997,0c0,0.837997 0,1.677002 0,2.516006c-2.149994,0.263 -3.584,-0.190002 -3.144997,-2.516006z"/>
   <path fill-rule="evenodd" clip-rule="evenodd" d="m94.727997,128.959c7.093002,0.455002 10.820999,4.272003 13.835999,8.805008c-5.787003,-1.761002 -11.901993,-3.192001 -13.835999,-8.805008z"/>
   <path fill-rule="evenodd" clip-rule="evenodd" d="m108.563004,154.115005c-3.275009,0.248001 -6.197006,-3.348999 -8.805008,-5.659988c-2.733994,-2.424011 -5.515991,-5.025009 -7.546997,-7.547012c-1.514999,0.258011 -1.367004,-1.147995 -3.145004,-0.627991c0.104004,-1.990005 -1.67099,-2.102005 -1.257996,-4.402008c2.024994,0.138 2.660995,-1.112 5.031006,-0.628998c5.612991,5.917999 12.618988,10.441986 15.723999,18.865997z"/>
   <path fill-rule="evenodd" clip-rule="evenodd" d="m82.778999,140.279999c-0.159996,2.145996 -1.346001,3.266006 -3.773003,3.143997c0.608002,-1.696991 1.577003,-3.034988 3.773003,-3.143997z"/>
   <path fill-rule="evenodd" clip-rule="evenodd" d="m78.375999,141.537003c0,0.839005 0,1.677002 0,2.515991c-1.801003,0.124008 -3.431999,0.07901 -3.144997,-1.886993c0.730995,-0.526993 1.686996,-0.828995 3.144997,-0.628998z"/>
   <path fill-rule="evenodd" clip-rule="evenodd" d="m50.075996,143.423996c1.801003,-0.123993 3.432007,-0.078003 3.145004,1.887009c-1.801003,0.123993 -3.432999,0.078003 -3.145004,-1.887009z"/>
   <path fill-rule="evenodd" clip-rule="evenodd" d="m75.861,106.319c-1.789001,2.511993 -5.764,-2.240005 -8.176003,-3.145004c-9.751999,-0.834 -12.932999,2.499008 -17.609001,5.660004c0.515007,-0.979004 1.445007,-1.837997 1.887001,-2.516006c5.225006,-8.007996 17.357002,-5.938995 23.898003,0.001007z"/>
   <path fill-rule="evenodd" clip-rule="evenodd" d="m60.139,108.835007c0.005997,5.03801 -2.445999,7.615997 -3.773003,11.320007c-2.945,-3.020004 -1.804001,2.410995 -5.659996,1.886993c0.170998,-2.134995 -0.487,-5.098999 0.628998,-6.289001c1.385002,0.501007 2.511002,1.262009 2.515999,3.143997c3.143005,-2.306 2.844002,-8.055008 6.288002,-10.061996z"/>
   <path fill-rule="evenodd" clip-rule="evenodd" d="m43.157997,135.248993c-1.753998,1.389999 -2.231995,4.056 -3.144997,6.289001c-4.893997,3.281998 -6.987,9.363998 -12.578003,11.94899c-1.173996,1.971008 -3.060997,5.873001 -5.659996,4.402008c-1.627003,-1.617004 0.526001,-2.666 1.887001,-3.145004c2.026001,-9.503998 9.932999,-13.125992 13.834999,-20.752991c2.478996,-1.229004 1.922997,1.228989 4.402,0c-2.111,-5.341003 -1.887001,-13.142014 -0.629005,-19.496002c3.057007,2.55899 0.454002,6.284988 0.629005,9.432999c0.361,6.468002 3.578995,11.916992 6.289001,16.35199c3.532997,-1.079987 5.668999,-3.554993 6.288994,-7.546997c6.942001,-5.780991 19.241005,-3.360001 23.269005,3.77301c-7.571999,-0.151001 -19.177002,-1.790009 -23.269005,4.401993c4.801003,-0.811996 14.820999,-4.636002 18.867004,1.886993c-5.996002,0.237 -12.404999,-2.429993 -18.237999,1.258011c0.265999,-1.314011 -0.431,-1.665009 -0.629005,-2.516006c-5.953995,2.306015 -10.570999,-1.371994 -11.319,-6.287994z"/>
  </g>
 </g>
</svg>
